<svg xmlns="http://www.w3.org/2000/svg" width="130.66" height="42" viewBox="0 0 130.66 42"><defs><style>            .cls-1{fill:#fff}        </style></defs><g id="baidu" transform="translate(-5007.394 -827.885)"><g id="Groupe_15214" data-name="Groupe 15214" transform="translate(5052.479 827.885)"><path id="Trac&#xE9;_18631" data-name="Trac&#xE9; 18631" class="cls-1" d="M5320.38 995.949a2.793 2.793 0 0 0-1.831 1.623 3.842 3.842 0 0 0-.171 2.216 2.519 2.519 0 0 0 2.172 2h2.39v-5.844z" transform="translate(-5307.865 -965.949)"></path><path id="Trac&#xE9;_18632" data-name="Trac&#xE9; 18632" class="cls-1" d="M5319.143 840.863c2.519 0 4.557-2.9 4.557-6.491s-2.038-6.487-4.557-6.487-4.564 2.9-4.564 6.487 2.042 6.491 4.564 6.491z" transform="translate(-5304.83 -827.885)"></path><path id="Trac&#xE9;_18633" data-name="Trac&#xE9; 18633" class="cls-1" d="M5383.178 846.052c3.374.442 5.535-3.157 5.966-5.883s-1.736-5.89-4.119-6.434-5.38 3.281-5.65 5.78c-.329 3.057.436 6.105 3.803 6.537z" transform="translate(-5358.001 -832.647)"></path><path id="Trac&#xE9;_18634" data-name="Trac&#xE9; 18634" class="cls-1" d="M5265.8 894.588c4.565-.981 3.943-6.442 3.81-7.635-.226-1.841-2.39-5.055-5.326-4.8-3.695.33-4.235 5.668-4.235 5.668-.505 2.474 1.191 7.751 5.751 6.767z" transform="translate(-5259.96 -872.455)"></path><path id="Trac&#xE9;_18635" data-name="Trac&#xE9; 18635" class="cls-1" d="M5431.371 904.549c0-1.3-1.079-5.235-5.1-5.235s-4.561 3.709-4.561 6.331c0 2.5.208 5.991 5.211 5.883s4.45-5.666 4.45-6.979z" transform="translate(-5392.837 -886.564)"></path><path id="Trac&#xE9;_18636" data-name="Trac&#xE9; 18636" class="cls-1" d="M5305.4 935.969a46.422 46.422 0 0 1-8.259-8.394c-4.132-6.43-10-3.811-11.955-.546s-4.994 5.341-5.426 5.89-6.3 3.7-5 9.485 5.872 5.667 5.872 5.667a25.642 25.642 0 0 0 7.272-.544 15.322 15.322 0 0 1 7.281.214s9.128 3.061 11.623-2.829-1.408-8.943-1.408-8.943zm-15.626 8.765h-5.932a5.2 5.2 0 0 1-3.714-2.563 6.756 6.756 0 0 1-.466-4.1 5.212 5.212 0 0 1 4.266-3.844h3.161v-3.88l2.686.042zm11.058-.042H5294c-2.651-.685-2.775-2.564-2.775-2.564v-7.554l2.776-.045v6.787c.169.722 1.068.853 1.068.853h2.813v-7.6h2.946z" transform="translate(-5271.963 -906.534)"></path></g><g id="Groupe_15215" data-name="Groupe 15215" transform="translate(5007.394 846.254)"><path id="Trac&#xE9;_18637" data-name="Trac&#xE9; 18637" class="cls-1" d="M5113.877 935.5v-3.184H5092.9l-.028 3.231h9.018l-.845 1.933h-7.669v15.98h18.218a1.7 1.7 0 0 0 1.735-1.924v-14.055h-7.681l.676-1.978h7.55zm-4.074 14.547s-.221.531-.534.531h-12.088v-3.727h12.619zm-.021-6.275h-12.6v-3.5h12.6zm28.063-11.372h-8.23v-1.61h-3.86v1.533h-9.44v21.105h3.4v-18.384h18.134zm-2.221 4.368v-1.222h-3.317v1.222h-6.826v-1.178h-3.142v1.178h-2.125l.042 2.391h2.083v4.49h11.479a1.886 1.886 0 0 0 1.8-1.681v-2.81h2.431v-2.391h-2.43zm-3.317 4.023s-.3.544-.675.544h-6.187v-2.224h6.861v1.681zm-11.628 6.13 5.285 3.065a8.214 8.214 0 0 1-2.224 1.044h-3.522v2.356H5125a23.133 23.133 0 0 0 4.07-1.635 7.952 7.952 0 0 0 3.2 1.422h5.452v-2.35h-4.11a6.194 6.194 0 0 1-2.1-.8l6.215-3.568v-1.932h-17.04v2.394zm11-.039-3.023 1.594-2.77-1.594zm-85.447-11.122h4.578v-4.034h-4.578zm0 17.579h4.578v-15.82h-4.578zm-7.445-15.809-9.767-.025v3.326h8.565s2.038.5 2.038 1.8v1.169h-7.749a4.96 4.96 0 0 0-4.028 3.922 6.558 6.558 0 0 0 .171 2.854 4.8 4.8 0 0 0 3.662 2.822h12.34v-11.333a5.788 5.788 0 0 0-5.23-4.533m.834 12.736h-6.236a2.059 2.059 0 0 1-1.177-1.037 1.479 1.479 0 0 1-.025-1.146 2.367 2.367 0 0 1 1.341-1.2h6.1zm-12.785-2.477a5.448 5.448 0 0 0-3.321-5.185c2.926-1.53 2.555-5.387 2.555-5.387-.317-5.9-7.529-5.627-7.529-5.627h-11.144v22h12.583c7.39-.03 6.857-5.8 6.857-5.8m-7.109 1.71v.01h-7.538v-4.746h7.5l.253.051a2.775 2.775 0 0 1 1.944 1.544 2.822 2.822 0 0 1-.346 2.1 2.531 2.531 0 0 1-1.815 1.038m1.6-10.2a2.548 2.548 0 0 1-1.851 1.132h-7.284v-4.553h7.253a2.248 2.248 0 0 1 2.1 1.179 3.553 3.553 0 0 1-.216 2.241" transform="translate(-5007.395 -930.79)"></path></g></g></svg>