<svg xmlns="http://www.w3.org/2000/svg" width="142.634" height="42" viewBox="0 0 142.634 42"><defs><style>            .cls-2{fill:#fff}        </style></defs><g id="fb" transform="translate(-71.7 -248.1)" style="opacity:.995"><path id="Trac&#xE9;_18613" data-name="Trac&#xE9; 18613" class="cls-2" d="M266.629 256.5h1.959v15.329h-1.815v-11.756l-3.371 7.722h-1.815l-3.371-7.722v11.756H256.4V256.5h1.931l4.149 9.422z" transform="translate(-131.852 -5.98)"></path><path id="Trac&#xE9;_18614" data-name="Trac&#xE9; 18614" class="cls-2" d="M317.288 280.869h-1.642l-.115-.951a6.676 6.676 0 0 1-3.63 1.181c-2.449 0-3.4-1.441-3.4-3.573 0-2.248 1.124-3.429 3.544-3.429a9.024 9.024 0 0 1 3.313.634v-1.758c0-1.469-.461-2.1-2.161-2.1a11.325 11.325 0 0 0-3.054.432l-.288-1.585a12.525 12.525 0 0 1 3.544-.519c2.651 0 3.89 1.153 3.89 3.659v8.01zm-1.931-4.812a11.241 11.241 0 0 0-3.054-.49c-1.556 0-1.93.749-1.93 2.017 0 1.412.461 2.075 1.786 2.075a5.577 5.577 0 0 0 3.169-.98v-2.622z" transform="translate(-169.033 -15.02)"></path><path id="Trac&#xE9;_18615" data-name="Trac&#xE9; 18615" class="cls-2" d="M355.7 271.286a13.7 13.7 0 0 0-3.573 1.21v8.615H350.2v-11.438h1.585l.2 1.325a5.846 5.846 0 0 1 3.458-1.5z" transform="translate(-198.786 -15.234)"></path><path id="Trac&#xE9;_18616" data-name="Trac&#xE9; 18616" class="cls-2" d="M376.3 269.551V253.3h1.93v10.113l3.976-5.273h2.276l-4.38 5.647 4.552 5.763h-2.274l-4.149-5.417v5.417z" transform="translate(-217.428 -3.702)"></path><path id="Trac&#xE9;_18617" data-name="Trac&#xE9; 18617" class="cls-2" d="M411.23 276.1c.115 2.42.72 3.573 3.054 3.573a9.891 9.891 0 0 0 3.371-.634l.288 1.469a10.506 10.506 0 0 1-3.688.692c-4.12 0-4.956-2.824-4.956-6.022 0-3.285 1.095-5.878 4.581-5.878 3.112 0 4.408 2.19 4.408 4.927v1.873zm0-1.527h5.186v-.4c0-2.132-.663-3.4-2.564-3.4-2.132-.029-2.593 1.527-2.622 3.8" transform="translate(-240.987 -15.092)"></path><path id="Trac&#xE9;_18618" data-name="Trac&#xE9; 18618" class="cls-2" d="M452.746 273.778a9.1 9.1 0 0 1-2.363.346c-1.959 0-2.795-1.095-2.795-2.852v-7.232H445.6v-1.556h1.988v-2.795l1.93-.288v3.054h3.256l-.173 1.556h-3.083v7.146c0 1.066.259 1.383 1.325 1.383a8.178 8.178 0 0 0 1.729-.231z" transform="translate(-266.889 -8.044)"></path><path id="Trac&#xE9;_18619" data-name="Trac&#xE9; 18619" class="cls-2" d="M478.7 254a1.257 1.257 0 0 1 1.3 1.3 1.24 1.24 0 0 1-1.3 1.3 1.257 1.257 0 0 1-1.3-1.3 1.274 1.274 0 0 1 1.3-1.3m-.951 4.639h1.93v11.439h-1.93z" transform="translate(-289.718 -4.2)"></path><path id="Trac&#xE9;_18620" data-name="Trac&#xE9; 18620" class="cls-2" d="M504.114 280.869v-8.327c0-1.037-.432-1.556-1.556-1.556a8.723 8.723 0 0 0-3.227.749v9.134H497.4v-11.438h1.556l.173 1.008a7.188 7.188 0 0 1 3.919-1.239c1.959 0 3.025 1.095 3.025 3.141v8.529z" transform="translate(-303.955 -15.02)"></path><path id="Trac&#xE9;_18621" data-name="Trac&#xE9; 18621" class="cls-2" d="M541.425 269.53h3.63v1.325l-1.527.288a4.063 4.063 0 0 1 .432 1.931c0 2.363-1.642 3.775-4.264 3.775a5.238 5.238 0 0 1-1.21-.115 1.362 1.362 0 0 0-.519 1.066c0 .548.288.807 1.037.807h2.596a2.976 2.976 0 0 1 3.256 3.054c0 2.449-2.161 3.659-5.244 3.659-3 0-4.61-.922-4.61-3.083a2.647 2.647 0 0 1 1.815-2.449 1.772 1.772 0 0 1-.749-1.527 2.167 2.167 0 0 1 1.325-1.9 3.459 3.459 0 0 1-1.959-3.285c0-2.449 1.412-3.775 4.236-3.775a6.493 6.493 0 0 1 1.758.231m-3.63 10.661a2.345 2.345 0 0 0-.98 1.9c0 1.325 1.124 1.815 2.853 1.815 2.017 0 3.256-.519 3.256-2.046a1.511 1.511 0 0 0-1.729-1.585h-2.478a3.673 3.673 0 0 1-.922-.086m1.9-9.508c-1.642 0-2.42.663-2.42 2.392a2.107 2.107 0 0 0 2.42 2.392 2.162 2.162 0 0 0 2.449-2.392c0-1.671-.864-2.392-2.449-2.392" transform="translate(-330.722 -15.092)"></path><path id="Trac&#xE9;_18622" data-name="Trac&#xE9; 18622" class="cls-2" d="M258.388 346.052v5.705H256.4V336.4h4.581c3.544 0 4.841 2.017 4.841 4.812s-1.3 4.812-4.841 4.812h-2.593zm0-1.614h2.536c2.305 0 2.939-1.325 2.939-3.2 0-1.9-.634-3.2-2.939-3.2h-2.536z" transform="translate(-131.844 -63.127)"></path><path id="Trac&#xE9;_18623" data-name="Trac&#xE9; 18623" class="cls-2" d="M301.288 360.869h-1.642l-.115-.951a6.675 6.675 0 0 1-3.63 1.181c-2.449 0-3.4-1.441-3.4-3.573 0-2.247 1.124-3.429 3.544-3.429a9.162 9.162 0 0 1 3.314.634v-1.758c0-1.469-.461-2.1-2.161-2.1a11.326 11.326 0 0 0-3.054.432l-.288-1.585a12.525 12.525 0 0 1 3.544-.519c2.651 0 3.89 1.153 3.89 3.659v8.01zm-1.93-4.812a11.241 11.241 0 0 0-3.054-.49c-1.556 0-1.93.749-1.93 2.017 0 1.412.461 2.075 1.786 2.075a5.577 5.577 0 0 0 3.169-.98v-2.622z" transform="translate(-157.612 -72.239)"></path><path id="Trac&#xE9;_18624" data-name="Trac&#xE9; 18624" class="cls-2" d="M339.7 351.286a13.7 13.7 0 0 0-3.573 1.21v8.615H334.2v-11.438h1.585l.2 1.325a5.846 5.846 0 0 1 3.458-1.5z" transform="translate(-187.366 -72.452)"></path><path id="Trac&#xE9;_18625" data-name="Trac&#xE9; 18625" class="cls-2" d="M363.117 353.778a9.1 9.1 0 0 1-2.363.346c-1.959 0-2.795-1.095-2.795-2.853v-7.232H356v-1.556h1.988v-2.795l1.931-.288v3.054h3.256L363 344.01h-3.083v7.146c0 1.066.259 1.383 1.325 1.383a8.178 8.178 0 0 0 1.729-.23z" transform="translate(-202.933 -65.263)"></path><path id="Trac&#xE9;_18626" data-name="Trac&#xE9; 18626" class="cls-2" d="M395.713 360.869v-8.327c0-1.037-.432-1.556-1.556-1.556a8.724 8.724 0 0 0-3.227.749v9.134H389V349.43h1.556l.173 1.008a7.188 7.188 0 0 1 3.919-1.239c1.959 0 3.025 1.095 3.025 3.141v8.529z" transform="translate(-226.495 -72.239)"></path><path id="Trac&#xE9;_18627" data-name="Trac&#xE9; 18627" class="cls-2" d="M429.93 356.1c.115 2.42.72 3.573 3.054 3.573a9.891 9.891 0 0 0 3.371-.634l.288 1.469a10.5 10.5 0 0 1-3.688.692c-4.12 0-4.956-2.824-4.956-6.022 0-3.285 1.095-5.878 4.581-5.878 3.112 0 4.409 2.19 4.409 4.927v1.873zm0-1.527h5.186v-.4c0-2.132-.663-3.4-2.564-3.4-2.161-.029-2.622 1.527-2.622 3.8" transform="translate(-254.335 -72.31)"></path><path id="Trac&#xE9;_18628" data-name="Trac&#xE9; 18628" class="cls-2" d="M474.1 351.286a13.694 13.694 0 0 0-3.573 1.21v8.615H468.6v-11.438h1.585l.2 1.325a5.846 5.846 0 0 1 3.458-1.5z" transform="translate(-283.297 -72.452)"></path><path id="Trac&#xE9;_18629" data-name="Trac&#xE9; 18629" class="cls-2" d="M111.635 248.1h-37.6a2.317 2.317 0 0 0-2.334 2.319v37.362a2.317 2.317 0 0 0 2.334 2.319h20.226v-16.262h-5.5v-6.327h5.5v-4.667c0-5.411 3.342-8.389 8.212-8.389a42.491 42.491 0 0 1 4.927.258v5.669h-3.371c-2.651 0-3.169 1.26-3.169 3.092v4.037h6.31l-.836 6.327h-5.5V290.1h10.776a2.317 2.317 0 0 0 2.334-2.319v-37.362a2.311 2.311 0 0 0-2.305-2.319"></path></g></svg>