<svg xmlns="http://www.w3.org/2000/svg" width="94.411" height="42" viewBox="0 0 94.411 42"><defs><clipPath id="clip-path"><path id="Rectangle_634" data-name="Rectangle 634" class="cls-1" d="M0 0h94.411v42H0z"></path></clipPath><style>            .cls-1{fill:#fff}        </style></defs><g id="google" transform="translate(-706 -22.959)"><path id="Trac&#xE9;_18600" data-name="Trac&#xE9; 18600" class="cls-1" d="M762.613 78.286v5.888h3.627a2.866 2.866 0 0 0 2.143-.871 2.956 2.956 0 0 0-2.143-5.017zm0 7.961v6.83h-2.166V76.213h5.746a5.2 5.2 0 0 1 3.721 1.46 4.873 4.873 0 0 1 0 7.136 5.184 5.184 0 0 1-3.721 1.437z" transform="translate(-34.411 -33.657)"></path><path id="Trac&#xE9;_18601" data-name="Trac&#xE9; 18601" class="cls-1" d="M794.684 98.038a1.73 1.73 0 0 0 .718 1.413 2.641 2.641 0 0 0 1.684.566A3.454 3.454 0 0 0 799.523 99a3.171 3.171 0 0 0 1.072-2.379 4.45 4.45 0 0 0-2.826-.8 3.666 3.666 0 0 0-2.2.636 1.887 1.887 0 0 0-.883 1.577zm2.8-8.384a5.376 5.376 0 0 1 3.792 1.283 4.559 4.559 0 0 1 1.389 3.522v7.113h-2.073v-1.6h-.092a4.133 4.133 0 0 1-3.58 1.978 4.651 4.651 0 0 1-3.191-1.13 3.61 3.61 0 0 1-1.284-2.826 3.433 3.433 0 0 1 1.354-2.85 5.711 5.711 0 0 1 3.616-1.059 6.394 6.394 0 0 1 3.179.707v-.5a2.464 2.464 0 0 0-.895-1.918 3.069 3.069 0 0 0-2.1-.79 3.319 3.319 0 0 0-2.872 1.53l-1.908-1.2a5.316 5.316 0 0 1 4.663-2.261z" transform="translate(-54.634 -42.152)"></path><path id="Trac&#xE9;_18602" data-name="Trac&#xE9; 18602" class="cls-1" d="M840.4 96.337a3.291 3.291 0 0 1-2.343-.871 3.23 3.23 0 0 1-.955-2.425v-6.453h-2.025v-1.979h2.023v-3.533h2.167v3.533h2.826v1.979h-2.826v5.747a2.108 2.108 0 0 0 .447 1.565 1.456 1.456 0 0 0 1.013.413 2.132 2.132 0 0 0 .507-.06 2.651 2.651 0 0 0 .46-.153l.682 1.931a5.821 5.821 0 0 1-1.978.305zm-13.522-11.728h2.073v1.885h.094q.966-2.215 3.981-2.214l.448.047v2.262l-.965-.094a3.458 3.458 0 0 0-2.485.93 3.123 3.123 0 0 0-.978 2.366v6.36h-2.166V84.609z" transform="translate(-76.395 -36.73)"></path><path id="Trac&#xE9;_18603" data-name="Trac&#xE9; 18603" class="cls-1" d="M874.173 90.03h2.072v1.6h.094a3.852 3.852 0 0 1 1.519-1.414 4.348 4.348 0 0 1 2.132-.565 4.266 4.266 0 0 1 3.262 1.212 4.842 4.842 0 0 1 1.142 3.45v7.255h-2.166v-7.109a2.546 2.546 0 0 0-2.849-2.826 2.707 2.707 0 0 0-2.167 1.047 3.8 3.8 0 0 0-.871 2.509v6.382h-2.167V90.03z" transform="translate(-106.286 -42.152)"></path><path id="Trac&#xE9;_18604" data-name="Trac&#xE9; 18604" class="cls-1" d="M909.447 94.411h6.619a2.873 2.873 0 0 0-.979-1.99 3.421 3.421 0 0 0-2.367-.788 3.142 3.142 0 0 0-2.107.753 3.606 3.606 0 0 0-1.167 2.026zm3.462 7.537a5.517 5.517 0 0 1-4.192-1.743 6.149 6.149 0 0 1-1.649-4.4 6.268 6.268 0 0 1 1.6-4.393 5.76 5.76 0 0 1 8.184-.094 6.641 6.641 0 0 1 1.519 4.651l-.023.236h-9.068a3.764 3.764 0 0 0 1.131 2.732 3.653 3.653 0 0 0 5.841-1.037l1.93.942a5.75 5.75 0 0 1-2.155 2.283 5.95 5.95 0 0 1-3.121.825z" transform="translate(-127.077 -42.152)"></path><path id="Trac&#xE9;_18605" data-name="Trac&#xE9; 18605" class="cls-1" d="M945.33 101.651h-2.167V90.11h2.073V92h.094a3.119 3.119 0 0 1 1.354-1.567 3.755 3.755 0 0 1 2.014-.648 4.061 4.061 0 0 1 1.6.283l-.66 2.1a3.6 3.6 0 0 0-1.271-.168 2.8 2.8 0 0 0-2.131.989 3.31 3.31 0 0 0-.907 2.307v6.36z" transform="translate(-149.888 -42.232)"></path><path id="Trac&#xE9;_18606" data-name="Trac&#xE9; 18606" class="cls-1" d="M764.4 41.021v1.47h3.52a3.113 3.113 0 0 1-1.156 2.167 3.948 3.948 0 0 1-5.109-.381 4 4 0 0 1 0-5.543 3.686 3.686 0 0 1 2.745-1.143 3.771 3.771 0 0 1 2.654 1.051l1.038-1.038a5.183 5.183 0 0 0-3.691-1.484 5.425 5.425 0 0 0-2.732.736 5.329 5.329 0 0 0-2.009 1.983 5.312 5.312 0 0 0 2.009 7.316 5.418 5.418 0 0 0 2.732.736 5.021 5.021 0 0 0 3.612-1.366 5.274 5.274 0 0 0 1.34-4.5z" transform="translate(-33.457 -8.319)"></path><path id="Trac&#xE9;_18607" data-name="Trac&#xE9; 18607" class="cls-1" d="M793.745 51.508a1.892 1.892 0 0 1-2.771 0 2.11 2.11 0 0 1-.565-1.5 2.052 2.052 0 0 1 .565-1.5 1.905 1.905 0 0 1 2.785 0 2.052 2.052 0 0 1 .565 1.5 2.113 2.113 0 0 1-.578 1.5zm-1.379-4.965a3.373 3.373 0 0 0-2.483 1 3.5 3.5 0 0 0 4.953 4.939 3.363 3.363 0 0 0 1.011-2.47 3.309 3.309 0 0 0-1.011-2.469 3.358 3.358 0 0 0-2.47-1z" transform="translate(-52.384 -14.905)"></path><path id="Trac&#xE9;_18608" data-name="Trac&#xE9; 18608" class="cls-1" d="M851.062 47.313h1.523V37.121h-1.523v10.192z" transform="translate(-91.68 -8.95)"></path><path id="Trac&#xE9;_18609" data-name="Trac&#xE9; 18609" class="cls-1" d="M814.375 51.508a1.892 1.892 0 0 1-2.771 0 2.11 2.11 0 0 1-.564-1.5 2.052 2.052 0 0 1 .564-1.5 1.905 1.905 0 0 1 2.784 0 2.051 2.051 0 0 1 .565 1.5 2.113 2.113 0 0 1-.578 1.5zM813 46.543a3.372 3.372 0 0 0-2.483 1 3.569 3.569 0 1 0 2.483-1z" transform="translate(-65.422 -14.905)"></path><path id="Trac&#xE9;_18610" data-name="Trac&#xE9; 18610" class="cls-1" d="M859.236 48.461a1.781 1.781 0 0 1 1.287-.578 1.585 1.585 0 0 1 .8.2 1.072 1.072 0 0 1 .485.532l-3.1 1.287a1.89 1.89 0 0 1 .526-1.445zm1.405 3.651a1.773 1.773 0 0 1-1.682-1.051l4.636-1.918-.157-.394a3.835 3.835 0 0 0-.48-.893 3.441 3.441 0 0 0-.676-.7 2.9 2.9 0 0 0-.841-.453 2.972 2.972 0 0 0-.973-.158 3.111 3.111 0 0 0-2.338.985 3.5 3.5 0 0 0-.933 2.482 3.374 3.374 0 0 0 .986 2.47 3.5 3.5 0 0 0 5.346-.539l-1.183-.788a1.969 1.969 0 0 1-1.707.959z" transform="translate(-95.559 -14.905)"></path><g id="Groupe_15211" data-name="Groupe 15211" transform="translate(706 22.959)"><g id="Groupe_15210" data-name="Groupe 15210" style="clip-path:url(#clip-path)"><path id="Trac&#xE9;_18611" data-name="Trac&#xE9; 18611" class="cls-1" d="M834.913 51.521a1.713 1.713 0 0 1-1.314.591 1.814 1.814 0 0 1-1.378-.6 2.269 2.269 0 0 1 .013-2.982 1.81 1.81 0 0 1 1.365-.617 1.671 1.671 0 0 1 1.314.6 2.37 2.37 0 0 1 0 3.008zm.433-4.2h-.053a2.262 2.262 0 0 0-1.825-.775 3.161 3.161 0 0 0-2.338 1.025 3.537 3.537 0 0 0 0 4.9 3.208 3.208 0 0 0 2.338 1.011 2.245 2.245 0 0 0 1.825-.788h.053v.355q0 2.18-1.852 2.18a1.717 1.717 0 0 1-1.05-.341 2.137 2.137 0 0 1-.7-.893l-1.327.551a3.554 3.554 0 0 0 .5.834 3.2 3.2 0 0 0 .7.644 3.458 3.458 0 0 0 .874.42 3.28 3.28 0 0 0 1 .151 3.147 3.147 0 0 0 2.423-.939 3.777 3.777 0 0 0 .874-2.673v-6.23h-1.445v.565z" transform="translate(-784.46 -37.864)"></path><path id="Trac&#xE9;_18612" data-name="Trac&#xE9; 18612" class="cls-1" d="M706 64.959h11.053v-42H706v42z" transform="translate(-706 -22.959)"></path></g></g></g></svg>